# Blender v2.79 (sub 0) OBJ File: ''
# www.blender.org
mtllib untitled.mtl
o Plane
v 0.853301 0.671274 1.147419
v 5.080523 0.671274 1.147419
v 0.853301 0.671274 -3.715597
v 5.080523 0.671274 -3.715597
v 0.853301 0.653274 1.147419
v 5.080523 0.653274 1.147419
v 0.853301 0.653274 -3.715597
v 5.080523 0.653274 -3.715597
v 2.919340 1.914652 -3.715597
v 2.861008 1.810798 1.147419
v 2.946759 1.914652 1.147419
v 3.073638 1.810798 -3.715597
vt 0.467613 0.555415
vt 0.405346 0.555677
vt 0.406589 0.131817
vt 0.467613 0.131557
vt 0.081299 0.557298
vt 0.081299 0.133463
vt 0.154177 0.131557
vt 0.144409 0.555486
vt 0.080846 0.557283
vt 0.080846 0.133448
vt 0.468556 0.131557
vt 0.533688 0.317535
vt 0.528248 0.325009
vt 0.467613 0.131557
vt 0.275981 0.131818
vt 0.275981 0.555676
vt 0.275508 0.555674
vt 0.275508 0.131816
vt 0.532745 0.868443
vt 0.467613 0.688368
vt 0.532745 0.500000
vt 0.533688 0.500000
vt 0.473053 0.674919
vt 0.533688 0.868443
vt 0.468556 0.500000
vt 0.467613 0.500000
vt 0.275508 0.131604
vt 0.275508 0.555439
vn -0.5131 0.8583 0.0014
vn 0.4802 -0.8771 0.0105
vn -1.0000 0.0000 0.0000
vn 0.0000 0.0000 1.0000
vn 1.0000 0.0000 0.0000
vn 0.0000 0.0000 -1.0000
vn 0.5011 0.8654 -0.0014
vn -0.4804 -0.8770 -0.0105
usemtl Material.001
s off
f 1/1/1 11/2/1 9/3/1 3/4/1
f 5/5/2 7/6/2 12/7/2 10/8/2
f 1/9/3 3/10/3 7/6/3 5/5/3
f 2/11/4 11/12/4 10/13/4 6/14/4
f 4/15/5 2/16/5 6/17/5 8/18/5
f 3/19/6 9/20/6 4/21/6 8/22/6 12/23/6 7/24/6
f 9/3/7 11/2/7 2/16/7 4/15/7
f 10/13/4 11/12/4 1/25/4 5/26/4
f 10/8/8 12/7/8 8/27/8 6/28/8
